<svg preserveAspectRatio="none" width="100%" height="100%" overflow="visible" style="display: block;" viewBox="0 0 1563 3320" fill="none" xmlns="http://www.w3.org/2000/svg">
<g id="Background Lines">
<path id="Vector 6" d="M0 141H608.5C654.892 141 692.5 178.608 692.5 225V335C692.5 381.392 730.108 419 776.5 419H1270C1316.39 419 1354 456.608 1354 503V964C1354 1010.39 1316.39 1048 1270 1048H1242C1195.61 1048 1158 1085.61 1158 1132V1526.5C1158 1572.89 1195.61 1610.5 1242 1610.5H1562.5" stroke="var(--stroke-0, #C93919)" stroke-width="40"/>
<path id="Vector 7" d="M0 181C256.237 181 368.314 181 608.429 181C632.73 181 652.5 200.706 652.5 225.007C652.5 412.024 652.5 518.055 652.5 693.972C652.5 740.364 690.108 778 736.5 778H957.5L1171.71 779.8C1217.82 780.188 1255 817.681 1255 863.797V1359.25C1255 1403.85 1291.15 1440 1335.75 1440C1380.35 1440 1416.5 1476.15 1416.5 1520.75V3197" stroke="var(--stroke-0, #1C6DAF)" stroke-width="40"/>
<path id="Vector 4" d="M279.5 1358V712.5C279.5 649.54 330.54 598.5 393.5 598.5H808C837.823 598.5 862 574.323 862 544.5V118.5C862 72.1081 899.652 34.5 946.044 34.5C1139.54 34.5 1250.51 34.5 1470 34.5" stroke="var(--stroke-0, #ECA82D)" stroke-width="40"/>
<path id="Vector 5" d="M822.5 0V544C822.5 552.284 815.727 559 807.442 559C644.294 559 532.198 559 393.015 559C308.516 559 240 627.5 240 712V1336.75C240 1387.15 199.146 1428 148.75 1428C98.354 1428 57.5 1468.85 57.5 1519.25V3320" stroke="var(--stroke-0, #48A71B)" stroke-width="40"/>
</g>
</svg>
