<?xml version="1.0" encoding="UTF-8" standalone="no"?>
<svg
   width="227"
   height="227"
   fill="none"
   viewBox="0 0 227 227"
   version="1.1"
   id="svg53"
   sodipodi:docname="aces_card_centered.svg"
   inkscape:version="1.4.2 (ebf0e940d0, 2025-05-08)"
   xmlns:inkscape="http://www.inkscape.org/namespaces/inkscape"
   xmlns:sodipodi="http://sodipodi.sourceforge.net/DTD/sodipodi-0.dtd"
   xmlns="http://www.w3.org/2000/svg"
   xmlns:svg="http://www.w3.org/2000/svg">
  <sodipodi:namedview
     id="namedview53"
     pagecolor="#ffffff"
     bordercolor="#000000"
     borderopacity="0.25"
     inkscape:showpageshadow="2"
     inkscape:pageopacity="0.0"
     inkscape:pagecheckerboard="0"
     inkscape:deskcolor="#d1d1d1"
     showguides="true"
     inkscape:zoom="2.4888913"
     inkscape:cx="59.464229"
     inkscape:cy="112.70079"
     inkscape:window-width="1920"
     inkscape:window-height="1008"
     inkscape:window-x="0"
     inkscape:window-y="0"
     inkscape:window-maximized="1"
     inkscape:current-layer="svg53" />
  <mask
     id="a"
     width="163"
     height="223"
     x="4"
     y="4"
     maskUnits="userSpaceOnUse">
    <path
       fill="#ffffff"
       d="M 4,4 H 167 V 227 H 4 Z"
       id="path1" />
  </mask>
  <g
     mask="url(#a)"
     id="g2"
     transform="translate(30)">
    <path
       fill="#000000"
       fill-opacity="0.498"
       d="m 24.099,4.802 h 123.599 c 10.641,0 19.203,8.573 19.203,19.219 v 183.76 c 0,10.646 -8.562,19.219 -19.203,19.219 H 24.099 C 13.463,227 4.901,218.427 4.901,207.781 V 24.021 c 0,-10.646 8.563,-19.219 19.198,-19.219 z"
       id="path2" />
  </g>
  <path
     fill="#ffffff"
     d="m 49.302,0 h 123.599 c 10.635,0 19.198,8.573 19.198,19.219 v 183.76 c 0,10.646 -8.563,19.219 -19.198,19.219 H 49.302 c -10.64,0 -19.202,-8.573 -19.202,-19.219 V 19.219 C 30.099,8.573 38.661,0 49.302,0 Z"
     id="path3" />
  <path
     fill="#c7891f"
     d="m 51.698,2.401 h 123.604 c 10.635,0 19.198,8.573 19.198,19.219 v 183.76 c 0,10.646 -8.563,19.219 -19.198,19.219 H 51.698 C 41.062,224.599 32.5,216.026 32.5,205.38 V 21.62 C 32.5,10.974 41.063,2.4 51.698,2.4 Z"
     id="path4" />
  <mask
     id="b"
     width="164"
     height="224"
     x="0"
     y="0"
     maskUnits="userSpaceOnUse">
    <path
       fill="#ffffff"
       d="M 0,0 H 164 V 224 H 0 Z"
       id="path5" />
  </mask>
  <g
     mask="url(#b)"
     id="g8"
     transform="translate(30)">
    <mask
       id="c"
       width="163"
       height="223"
       x="1"
       y="1"
       maskUnits="userSpaceOnUse">
      <path
         fill="#ffffff"
         d="m 20.5,1.203 h 123.599 a 19.164,19.164 0 0 1 19.203,19.214 v 183.765 a 19.164,19.164 0 0 1 -19.203,19.214 H 20.5 c -10.635,0 -19.198,-8.568 -19.198,-19.214 V 20.417 C 1.302,9.77 9.865,1.203 20.5,1.203 Z"
         id="path6" />
    </mask>
    <g
       mask="url(#c)"
       id="g7">
      <path
         fill="url(#d)"
         d="m 1.302,1.203 v 222.193 h 162 V 1.203 Z"
         id="path7"
         style="fill:url(#d)" />
    </g>
  </g>
  <path
     fill="#9f0000"
     fill-rule="evenodd"
     d="m 153.135,24.02 a 4.797,4.797 0 0 0 -1.724,0.34 c -1.114,0.437 -2.083,1.333 -2.437,2.624 a 3.474,3.474 0 0 0 0.224,2.407 c 0.375,0.74 1.12,1.343 2.104,1.349 0.568,0.005 1.016,-0.235 1.385,-0.641 0.183,-0.198 0.375,-0.495 0.375,-0.86 0,-0.364 -0.25,-0.703 -0.562,-0.9 l -0.635,0.974 c 0.083,0.057 0,-0.006 0,-0.073 0,-0.073 0.02,-0.026 -0.042,0.036 -0.115,0.125 -0.542,0.26 -0.521,0.26 -0.51,0 -0.786,-0.26 -1.016,-0.713 -0.224,-0.448 -0.27,-1.083 -0.151,-1.537 0.245,-0.9 0.865,-1.479 1.688,-1.802 0.828,-0.323 1.864,-0.359 2.703,-0.036 2.536,0.969 3.391,4.12 2.323,6.531 -0.932,2.12 -3.094,3.396 -5.401,3.49 l -75.333,0.448 v 1.203 l 75.072,-0.448 v 0.073 c 0.094,0 0.167,-0.073 0.261,-0.073 h 0.417 v -0.115 c 2.593,-0.234 5.026,-1.635 6.109,-4.093 1.323,-2.99 0.172,-6.901 -3.073,-8.141 -0.568,-0.219 -1.167,-0.302 -1.766,-0.302 z m 13.688,3.642 a 6.39,6.39 0 0 0 -2.359,0.526 c -2.454,1.083 -3.855,3.52 -4.089,6.12 h -0.115 v 0.41 c 0,0.094 -0.073,0.167 -0.073,0.261 h 0.073 l 0.302,82.99 h 1.198 l -0.296,-83.25 c 0.093,-2.308 1.369,-4.469 3.484,-5.407 2.411,-1.062 5.557,-0.213 6.526,2.329 0.323,0.838 0.286,1.875 -0.037,2.703 -0.322,0.828 -0.901,1.442 -1.802,1.687 a 2.32,2.32 0 0 1 -1.536,-0.15 c -0.453,-0.225 -0.708,-0.506 -0.714,-1.011 0,0.02 0.136,-0.412 0.266,-0.526 0.063,-0.058 0.104,-0.037 0.036,-0.037 -0.067,0 -0.13,-0.088 -0.072,0 l 0.974,-0.64 c -0.204,-0.313 -0.537,-0.563 -0.902,-0.563 -0.364,0 -0.661,0.193 -0.864,0.375 -0.401,0.37 -0.641,0.818 -0.636,1.39 0.006,0.98 0.61,1.73 1.349,2.1 a 3.402,3.402 0 0 0 2.401,0.224 c 1.292,-0.35 2.188,-1.323 2.625,-2.438 a 4.78,4.78 0 0 0 0.339,-1.724 c 0,-0.599 -0.083,-1.198 -0.302,-1.765 -0.927,-2.438 -3.354,-3.688 -5.776,-3.604 z m -102.787,79.233 0.303,83.245 c -0.094,2.307 -1.37,4.468 -3.49,5.406 -2.412,1.068 -5.557,0.213 -6.526,-2.328 -0.318,-0.839 -0.287,-1.875 0.042,-2.703 0.323,-0.823 0.895,-1.443 1.797,-1.688 0.453,-0.12 1.088,-0.078 1.536,0.151 0.453,0.229 0.708,0.505 0.713,1.016 0,-0.021 -0.135,0.406 -0.26,0.521 -0.063,0.062 -0.11,0.041 -0.036,0.041 0.067,0 0.125,0.084 0.073,0 l -0.974,0.636 c 0.198,0.312 0.536,0.562 0.9,0.562 0.36,0 0.662,-0.192 0.86,-0.375 0.401,-0.364 0.64,-0.818 0.64,-1.385 -0.01,-0.985 -0.609,-1.729 -1.354,-2.104 a 3.385,3.385 0 0 0 -2.395,-0.224 c -1.292,0.349 -2.193,1.323 -2.625,2.437 a 4.686,4.686 0 0 0 -0.339,1.729 4.874,4.874 0 0 0 0.297,1.761 c 1.24,3.25 5.151,4.401 8.14,3.078 2.454,-1.083 3.855,-3.516 4.09,-6.115 h 0.108 v -0.416 c 0.006,-0.094 0.079,-0.167 0.079,-0.261 H 65.536 L 65.24,106.895 Z m 85.651,80.844 -75.072,0.453 v -0.078 c -0.094,0 -0.172,0.073 -0.266,0.078 h -0.411 v 0.109 c -2.594,0.234 -5.032,1.635 -6.115,4.094 -1.318,2.989 -0.172,6.901 3.078,8.146 a 4.886,4.886 0 0 0 1.76,0.297 c 0.6,0 1.167,-0.12 1.724,-0.339 1.12,-0.437 2.089,-1.333 2.438,-2.625 0.213,-0.776 0.151,-1.661 -0.224,-2.401 -0.37,-0.745 -1.115,-1.344 -2.099,-1.354 -0.573,-0.005 -1.02,0.234 -1.385,0.64 -0.188,0.198 -0.38,0.5 -0.375,0.86 0,0.364 0.25,0.703 0.562,0.901 l 0.636,-0.974 c -0.084,-0.052 0,0.005 0,0.073 0,0.073 -0.021,0.031 0.036,-0.037 0.12,-0.125 0.547,-0.26 0.526,-0.26 0.505,0.005 0.786,0.26 1.01,0.713 a 2.32,2.32 0 0 1 0.151,1.537 c -0.244,0.901 -0.859,1.479 -1.687,1.802 -0.823,0.323 -1.86,0.359 -2.698,0.036 -2.542,-0.968 -3.39,-4.114 -2.328,-6.531 0.937,-2.114 3.099,-3.396 5.401,-3.489 l 75.338,-0.448 z"
     clip-rule="evenodd"
     id="path8" />
  <path
     fill="#ff0000"
     d="m 58.995,42.969 h -12 l -1.896,6.562 H 37.385 L 48.406,13.5 h 9.151 L 68.583,49.531 H 60.87 Z M 48.906,36.28 h 8.157 L 52.995,21.947 Z m 116.328,145.199 h 12 l 1.891,-6.562 h 7.719 l -11.026,36.031 h -9.151 l -11.026,-36.031 h 7.718 z m 10.084,6.688 h -8.151 l 4.067,14.333 z"
     id="path9" />
  <path
     fill="#ff0000"
     fill-rule="evenodd"
     d="M 53.39,57.25 C 48.443,67.151 44.828,72.26 37.385,77.713 44.432,83.104 49.401,88.672 53.536,97.677 57.229,89.125 61.75,82.745 69.604,77.447 61.704,73.422 57.13,67.052 53.391,57.25 Z m 117.516,69.271 c -4.948,9.901 -8.557,15.01 -16.005,20.463 7.047,5.391 12.016,10.959 16.151,19.964 3.693,-8.552 8.214,-14.932 16.068,-20.229 -7.896,-4.021 -12.469,-10.396 -16.214,-20.198 z M 112.031,69.724 C 101.401,91 93.646,101.979 77.656,113.698 c 15.136,11.583 25.802,23.547 34.688,42.896 7.932,-18.38 17.64,-32.078 34.505,-43.469 -16.964,-8.646 -26.781,-22.333 -34.818,-43.401 z"
     clip-rule="evenodd"
     id="path10" />
  <defs
     id="defs53">
    <linearGradient
       id="d"
       x1="-30.837"
       x2="185.93401"
       y1="53.665001"
       y2="186.44701"
       gradientUnits="userSpaceOnUse">
      <stop
         stop-color="#EBF0D0"
         id="stop10" />
      <stop
         offset=".125"
         stop-color="#EBF0D0"
         id="stop11" />
      <stop
         offset=".156"
         stop-color="#EBF0D0"
         id="stop12" />
      <stop
         offset=".172"
         stop-color="#ECF0D1"
         id="stop13" />
      <stop
         offset=".188"
         stop-color="#ECF1D1"
         id="stop14" />
      <stop
         offset=".203"
         stop-color="#EDF1D2"
         id="stop15" />
      <stop
         offset=".219"
         stop-color="#EDF2D3"
         id="stop16" />
      <stop
         offset=".234"
         stop-color="#EEF2D4"
         id="stop17" />
      <stop
         offset=".25"
         stop-color="#EEF2D4"
         id="stop18" />
      <stop
         offset=".266"
         stop-color="#EFF3D5"
         id="stop19" />
      <stop
         offset=".281"
         stop-color="#EFF3D6"
         id="stop20" />
      <stop
         offset=".297"
         stop-color="#F0F4D6"
         id="stop21" />
      <stop
         offset=".313"
         stop-color="#F0F4D7"
         id="stop22" />
      <stop
         offset=".328"
         stop-color="#F1F4D8"
         id="stop23" />
      <stop
         offset=".344"
         stop-color="#F1F5D9"
         id="stop24" />
      <stop
         offset=".359"
         stop-color="#F2F5D9"
         id="stop25" />
      <stop
         offset=".375"
         stop-color="#F2F6DA"
         id="stop26" />
      <stop
         offset=".391"
         stop-color="#F3F6DB"
         id="stop27" />
      <stop
         offset=".406"
         stop-color="#F3F6DB"
         id="stop28" />
      <stop
         offset=".422"
         stop-color="#F4F7DC"
         id="stop29" />
      <stop
         offset=".438"
         stop-color="#F4F7DD"
         id="stop30" />
      <stop
         offset=".453"
         stop-color="#F5F8DE"
         id="stop31" />
      <stop
         offset=".457"
         stop-color="#F6F8DE"
         id="stop32" />
      <stop
         offset=".469"
         stop-color="#F6F8DF"
         id="stop33" />
      <stop
         offset=".484"
         stop-color="#F6F8DF"
         id="stop34" />
      <stop
         offset=".5"
         stop-color="#F7F9E0"
         id="stop35" />
      <stop
         offset=".516"
         stop-color="#F7F9E0"
         id="stop36" />
      <stop
         offset=".531"
         stop-color="#F8F9E1"
         id="stop37" />
      <stop
         offset=".543"
         stop-color="#F8FAE2"
         id="stop38" />
      <stop
         offset=".547"
         stop-color="#F8FAE2"
         id="stop39" />
      <stop
         offset=".563"
         stop-color="#F9FAE3"
         id="stop40" />
      <stop
         offset=".578"
         stop-color="#F9FBE3"
         id="stop41" />
      <stop
         offset=".594"
         stop-color="#FAFBE4"
         id="stop42" />
      <stop
         offset=".609"
         stop-color="#FAFBE5"
         id="stop43" />
      <stop
         offset=".625"
         stop-color="#FBFCE5"
         id="stop44" />
      <stop
         offset=".641"
         stop-color="#FBFCE6"
         id="stop45" />
      <stop
         offset=".656"
         stop-color="#FCFDE7"
         id="stop46" />
      <stop
         offset=".672"
         stop-color="#FCFDE8"
         id="stop47" />
      <stop
         offset=".688"
         stop-color="#FDFDE8"
         id="stop48" />
      <stop
         offset=".703"
         stop-color="#FDFEE9"
         id="stop49" />
      <stop
         offset=".719"
         stop-color="#FEFEEA"
         id="stop50" />
      <stop
         offset=".734"
         stop-color="#FFFFEA"
         id="stop51" />
      <stop
         offset=".75"
         stop-color="#FFFFEB"
         id="stop52" />
      <stop
         offset="1"
         stop-color="#FFFFEB"
         id="stop53" />
    </linearGradient>
  </defs>
</svg>
